<?xml version="1.0" encoding="utf-8"?>
<!-- Generator: Adobe Illustrator 24.1.1, SVG Export Plug-In . SVG Version: 6.00 Build 0)  -->
<svg version="1.1" id="Layer_1" xmlns="http://www.w3.org/2000/svg" x="0px" y="0px"
	 viewBox="0 0 512 512" style="enable-background:new 0 0 512 512;" xml:space="preserve">
<g id="XMLID_6_">
	<path id="XMLID_12_" class="st0" d="M256.2,0.5c-65.3,0-131.3,25.2-181.7,74.7c-99.9,99.9-99.1,261.1,0.8,360.2
		c99.9,100.7,261.9,101.5,361.8,1.6s99.9-261.9,0-361C386.8,25.7,321.5,0.5,256.2,0.5z M256.2,53.2c51.9,0,103.8,19.7,143.1,59.8
		c79.4,79.4,79.4,207.6,0,287.1s-207.6,79.4-287.1,0s-79.4-207.6,0-287.1C152.4,73.7,204.3,53.2,256.2,53.2z M374.2,138.2
		l-151.8,84.9l-84.2,151L290,290L374.2,138.2z M231,240.4l40.1,39.3l-96.7,59L231,240.4z"/>
</g>
</svg>
